<?xml version="1.0" standalone="no"?><!DOCTYPE svg PUBLIC "-//W3C//DTD SVG 1.1//EN" "http://www.w3.org/Graphics/SVG/1.1/DTD/svg11.dtd"><svg t="1705288922939" class="icon" viewBox="0 0 1024 1024" version="1.1" xmlns="http://www.w3.org/2000/svg" p-id="10688" xmlns:xlink="http://www.w3.org/1999/xlink" width="200" height="200"><path d="M717.568 329.216s0 0.256 0 0c-3.328 7.68-3.584 16.128 0.768 23.04l132.864 218.624c4.096 6.912 11.52 12.032 19.712 12.032h0.256c8.192 0.256 16.128-2.816 20.992-9.472l79.104-105.728c12.032-16.128 12.288-26.624 6.912-34.816l-87.04-131.84c-5.12-7.936-14.592-12.032-24.064-10.24l-131.584 23.552c-8.192 1.536-14.592 7.168-17.92 14.848z m-316.16 246.272l-151.552-143.104c-3.072-3.072-7.68-4.096-12.032-2.816-4.864 1.28-11.264 2.304-16.384 2.048-4.352 0-8.448 2.048-10.752 5.888l-130.56 208.64c-4.864 7.68 0 17.408 8.96 18.688l141.824 18.176c5.632 0.768 9.984 5.12 10.752 10.496l4.608 33.024c1.536 10.24 14.08 14.336 21.248 6.656l133.888-140.544c5.12-4.608 5.12-12.544 0-17.152z m37.12 35.584c-7.68-7.424-19.968-7.424-27.392 0.512L273.92 755.456c-7.168 7.424-6.912 19.456 0.768 26.624l64.768 61.184c3.84 3.584 8.704 5.376 14.08 5.12l136.96-5.888c2.56 0 5.12-0.768 7.424-1.792l92.16-44.288c11.776-5.632 14.336-21.248 5.12-30.208l-156.672-155.136z m400.896-22.016l-136.704-225.024c-3.072-4.864-10.496-3.328-11.264 2.304-9.216 64.512-41.216 297.216-51.2 369.152-1.28 8.448 8.192 14.336 15.36 9.728l173.056-110.592c3.328-2.048 5.12-6.144 4.352-9.984-0.256-1.536-0.256-3.072-0.256-4.352 0-7.424 2.304-14.592 6.4-20.224 2.304-3.584 2.304-7.68 0.256-11.008z m184.32 43.52l-23.04-131.072c-2.304-12.8-18.688-16.64-26.368-6.144l-69.888 94.208c-3.072 4.352-4.096 9.984-1.792 14.592 2.304 4.864 3.84 9.984 3.84 15.616 0 2.816-0.256 5.376-1.024 7.936-1.28 5.12 1.024 10.24 5.12 13.568l73.472 61.952c8.192 6.912 20.992 3.072 23.808-7.424l15.616-57.088c0.512-1.792 0.768-3.84 0.256-6.144zM265.728 356.864c52.224-35.584 213.248-145.152 286.464-195.072 10.752-7.168 5.12-23.808-7.936-23.296L358.144 145.92c-4.864 0.256-9.216 3.072-11.264 7.424l-89.6 196.352c-2.304 5.376 3.584 10.496 8.448 7.168z m-82.432 68.864L7.424 481.536c-5.632 1.792-8.704 7.936-6.656 13.568l47.616 133.888c3.072 8.192 14.336 9.472 18.944 2.048l122.88-196.352c2.816-5.12-1.536-10.752-6.912-8.96z m-131.328 19.2c44.544-15.616 105.728-37.632 128.256-45.824 5.12-1.792 8.448-6.144 9.728-11.52 3.328-13.568 14.336-24.32 28.16-27.136 4.864-1.024 9.216-3.84 11.264-8.448 11.008-22.528 44.544-90.624 68.352-140.544 8.192-17.408-11.008-34.816-27.904-25.088l-156.672 90.624c-3.072 1.792-5.376 4.096-7.168 7.168L28.16 416.768c-9.216 15.616 6.4 34.304 23.808 28.16z m599.808-86.016L442.368 578.56c-2.304 2.56-2.304 6.4 0.256 8.704l166.4 156.928c3.84 3.584 9.984 1.28 10.752-3.84L662.784 363.52c0.512-5.376-6.912-8.96-11.008-4.608z m-23.04-23.808l-358.656 62.976c-4.608 0.768-8.192 4.096-9.472 8.448-1.28 4.352-0.256 8.96 3.328 12.288l151.04 142.592c4.864 4.608 12.8 4.352 17.408-0.512l203.264-213.504c5.12-5.12 0.256-13.568-6.912-12.288z m-345.856 40.96l358.912-64.512c3.328-0.512 6.144-3.072 7.168-6.144 1.536-5.632 4.352-10.752 8.192-14.848 2.048-2.304 2.56-5.632 1.28-8.704-9.216-19.968-42.752-91.904-54.784-118.272-2.304-5.12-8.96-6.912-13.568-3.584l-309.248 210.688c-3.072 1.536-1.28 5.888 2.048 5.376z m688.64 342.272l-72.192-60.672c-4.864-4.096-11.52-5.632-17.408-3.584-3.84 1.28-7.936 2.048-12.288 2.048-5.888 0-11.52-1.536-16.64-4.096-5.632-2.816-12.544-2.304-17.92 1.28l-192.512 122.88c-5.12 3.328-8.192 8.96-8.448 14.848l-1.536 65.28c0 4.608 1.536 8.96 4.352 12.288l71.168 82.688c11.52 13.312 33.28 4.608 32.512-12.8l-1.28-31.232c-0.256-6.4 2.816-12.544 8.448-16.128l221.696-143.872c10.496-6.4 11.264-20.992 2.048-28.928zM676.096 274.432c1.28 2.56 3.84 4.096 6.912 4.096 12.8 0 25.088 7.168 31.488 16.128 1.536 2.048 4.352 3.072 6.912 2.56l128.768-23.04c6.656-1.28 7.936-10.24 2.048-13.312l-218.88-109.312c-5.888-3.072-12.544 3.072-9.728 9.216l52.48 113.664z" fill="#515151" p-id="10689"></path></svg>